<?xml version="1.0" standalone="no"?>
<!DOCTYPE svg PUBLIC "-//W3C//DTD SVG 20010904//EN"
 "http://www.w3.org/TR/2001/REC-SVG-20010904/DTD/svg10.dtd">
<svg version="1.0" xmlns="http://www.w3.org/2000/svg"
 width="595.000000pt" height="595.000000pt" viewBox="0 0 595.000000 595.000000"
 preserveAspectRatio="xMidYMid meet">
<metadata>
Created by potrace 1.11, written by Peter Selinger 2001-2013
</metadata>
<g transform="translate(0.000000,595.000000) scale(0.100000,-0.100000)"
fill="#000000" stroke="none">
<path d="M885 4687 c-3 -6 -4 -183 -3 -392 3 -330 5 -380 18 -380 13 0 15 49
18 373 l2 372 375 0 c368 0 375 0 375 20 0 20 -7 20 -390 20 -304 0 -392 -3
-395 -13z"/>
<path d="M4475 4690 c-17 -27 18 -30 381 -30 l374 0 0 -375 c0 -328 2 -375 15
-375 13 0 15 48 13 393 l-3 392 -387 3 c-253 1 -389 -1 -393 -8z"/>
<path d="M2640 3805 c-46 -46 -86 -82 -89 -79 -3 2 7 16 22 30 26 24 38 74 18
74 -5 0 -20 -17 -32 -37 -13 -21 -46 -65 -74 -98 -28 -33 -64 -81 -80 -108
-17 -26 -53 -78 -81 -115 -28 -37 -53 -74 -56 -83 -4 -9 -41 -66 -85 -128 -43
-62 -87 -128 -98 -146 -11 -19 -47 -70 -80 -115 -107 -146 -125 -174 -125
-198 0 -16 4 -21 13 -16 6 5 -1 -7 -16 -25 -15 -19 -43 -66 -62 -105 -18 -39
-45 -82 -60 -96 -20 -19 -25 -21 -19 -6 6 16 4 17 -17 11 -23 -8 -48 -32 -49
-47 0 -5 -9 -8 -19 -8 -31 0 -35 65 -22 359 13 301 29 461 46 461 7 0 12 19
13 45 3 55 -18 79 -80 96 -24 6 -55 17 -70 25 -31 16 -27 29 -58 -166 -31
-193 -50 -417 -50 -594 0 -192 11 -272 48 -346 26 -54 28 -55 66 -53 21 2 54
11 72 22 l33 20 20 -35 c23 -38 33 -40 83 -20 39 17 123 103 138 141 5 14 16
25 25 25 8 0 21 12 27 28 7 15 33 52 60 83 26 30 68 91 93 135 26 43 59 93 74
109 15 17 52 68 82 115 51 78 168 252 246 367 18 27 41 58 50 71 10 13 32 48
50 79 17 31 35 58 40 62 5 3 49 59 98 125 77 102 89 123 87 153 -3 41 -34 72
-72 73 -19 0 -48 -22 -110 -85z m-1111 -1046 c1 -36 10 -101 21 -144 11 -43
20 -93 20 -112 0 -29 -3 -33 -25 -33 -16 0 -25 6 -25 15 0 8 -5 15 -10 15 -6
0 -8 11 -4 25 3 14 2 31 -3 38 -6 6 -12 22 -15 34 -6 21 6 179 18 243 7 34 7
34 14 10 5 -14 8 -55 9 -91z"/>
<path d="M3860 3773 c-14 -3 -34 -13 -45 -23 -17 -15 -56 -33 -77 -35 -12 0
-120 -70 -153 -97 -18 -16 -38 -28 -43 -28 -6 0 -16 -9 -22 -20 -6 -11 -17
-20 -25 -20 -7 0 -22 -11 -32 -24 -10 -12 -31 -29 -45 -37 -41 -21 -259 -241
-254 -255 3 -7 -2 -18 -9 -24 -8 -7 -25 -33 -37 -57 -13 -25 -33 -52 -45 -61
-13 -8 -23 -23 -23 -34 0 -15 -5 -18 -20 -13 -14 5 -20 2 -20 -9 0 -9 -4 -16
-9 -16 -5 0 -12 -9 -16 -19 -3 -11 -16 -21 -28 -23 -12 -2 -23 -12 -25 -23 -2
-11 -8 -24 -13 -29 -10 -11 27 128 42 156 9 16 36 104 89 288 10 36 32 101 48
145 16 44 33 103 36 130 7 46 5 53 -19 75 -16 15 -48 29 -81 36 l-54 10 0 -52
c0 -29 -4 -56 -10 -59 -5 -3 -10 -26 -10 -50 0 -24 -4 -46 -9 -50 -6 -3 -13
-27 -16 -53 -8 -57 -59 -231 -84 -287 -10 -22 -35 -94 -56 -160 -20 -66 -45
-141 -56 -167 -10 -26 -19 -60 -19 -77 0 -16 -5 -33 -10 -36 -16 -10 -2 69 30
165 15 47 31 109 34 138 4 29 15 70 25 90 11 20 21 61 24 91 4 49 3 52 -8 30
-7 -13 -25 -69 -40 -124 -14 -55 -42 -149 -60 -210 -28 -91 -34 -129 -36 -220
-3 -93 0 -114 15 -137 17 -26 23 -28 92 -28 l73 0 40 58 c22 31 49 69 60 84
12 14 21 36 21 47 0 12 4 21 9 21 5 0 15 15 22 33 15 38 91 129 172 205 31 31
57 63 57 73 0 10 9 23 20 29 11 6 20 17 20 25 0 8 6 18 13 22 8 4 21 22 31 38
10 17 44 50 77 75 33 25 94 80 135 123 42 43 83 77 94 77 10 0 28 12 39 26 11
14 24 23 29 20 12 -7 44 32 37 45 -4 6 -21 1 -43 -13 -60 -37 -24 1 41 43 33
22 97 51 141 65 75 24 81 24 93 8 15 -21 0 -44 -29 -44 -17 0 -96 -37 -108
-51 -3 -3 -16 -9 -30 -12 -29 -8 -164 -133 -151 -141 4 -3 19 6 31 19 13 14
32 25 42 25 11 0 23 11 28 25 7 17 17 25 34 25 14 0 28 4 31 10 9 15 130 80
148 80 23 0 22 -28 -9 -139 -14 -51 -23 -95 -21 -97 8 -8 43 68 66 141 12 39
24 76 27 84 3 11 7 11 20 0 25 -20 15 -139 -17 -209 -14 -30 -40 -102 -58
-160 -19 -58 -53 -163 -77 -235 -23 -71 -57 -184 -74 -250 -18 -66 -37 -126
-43 -134 -6 -7 -14 -36 -18 -65 -13 -94 -20 -130 -42 -231 -30 -139 -29 -195
7 -275 16 -36 34 -68 40 -73 6 -4 28 -5 49 -1 28 4 37 2 37 -9 0 -18 32 -47
52 -47 8 0 34 14 57 30 23 17 46 28 50 25 5 -2 14 2 21 10 7 8 30 25 51 37 37
21 53 38 89 99 8 14 68 91 133 171 64 81 117 151 117 156 0 4 25 39 55 77 30
38 55 73 55 78 0 5 15 23 33 41 17 18 46 52 62 75 17 23 37 51 46 61 10 10 23
29 30 43 8 13 33 50 57 81 34 45 45 70 56 128 8 40 13 74 12 75 -1 2 -12 -4
-24 -13 -12 -8 -27 -34 -33 -57 -6 -26 -27 -61 -56 -92 -25 -27 -39 -41 -32
-30 8 11 20 26 27 33 15 16 16 32 2 32 -21 0 -9 31 15 40 14 5 25 16 25 25 0
8 9 29 19 46 19 31 19 32 -1 70 -23 46 -33 49 -42 13 -9 -34 -74 -129 -89
-129 -18 0 -67 -50 -67 -67 0 -9 -16 -28 -36 -43 -20 -15 -42 -42 -50 -61 -7
-18 -18 -36 -24 -39 -6 -4 -22 -23 -36 -43 -34 -51 -62 -88 -195 -258 -64 -82
-128 -168 -143 -191 -14 -24 -31 -43 -36 -43 -6 0 -10 -8 -10 -17 0 -10 -34
-54 -75 -98 -84 -90 -89 -90 -101 4 -9 74 1 194 25 289 12 43 22 108 25 143 6
103 27 221 47 265 11 22 19 50 19 63 0 12 11 41 24 64 13 23 30 62 36 87 6 25
19 56 27 69 30 47 79 312 69 374 -9 54 -31 93 -56 100 -16 4 -20 2 -16 -9 3
-8 1 -14 -4 -14 -6 0 -10 7 -10 15 0 8 -4 15 -9 15 -5 0 -11 14 -15 30 -3 17
-16 45 -28 63 -13 17 -23 33 -23 33 0 5 -95 11 -115 7z m246 -297 c-4 -22 -13
-60 -21 -85 -7 -25 -16 -59 -20 -75 -3 -15 -8 -26 -11 -23 -3 2 2 45 10 93 9
49 16 114 17 144 l1 55 15 -35 c10 -23 13 -48 9 -74z"/>
<path d="M880 1710 l0 -390 395 0 c344 0 395 2 395 15 0 13 -48 15 -375 15
l-375 0 0 375 c0 368 0 375 -20 375 -20 0 -20 -7 -20 -390z"/>
<path d="M5230 1725 l0 -375 -380 0 c-331 0 -380 -2 -380 -15 0 -13 51 -15
395 -15 l395 0 0 390 c0 340 -2 390 -15 390 -13 0 -15 -48 -15 -375z"/>
<path d="M2260 1395 c0 -77 4 -125 10 -125 6 0 10 26 10 58 0 62 11 82 45 82
34 0 45 -20 45 -82 0 -32 4 -58 10 -58 16 0 12 113 -6 138 -17 24 -62 30 -82
10 -9 -9 -12 1 -12 45 0 31 -4 57 -10 57 -6 0 -10 -48 -10 -125z"/>
<path d="M3760 1395 c0 -77 4 -125 10 -125 6 0 10 26 10 58 0 62 11 82 45 82
34 0 45 -20 45 -82 0 -32 4 -58 10 -58 16 0 12 113 -6 138 -17 24 -62 30 -82
10 -9 -9 -12 1 -12 45 0 31 -4 57 -10 57 -6 0 -10 -48 -10 -125z"/>
<path d="M2680 1450 c0 -11 -7 -20 -15 -20 -8 0 -15 -4 -15 -10 0 -5 7 -10 15
-10 11 0 15 -12 15 -51 0 -63 13 -89 45 -89 31 0 33 17 3 22 -20 3 -23 10 -26
61 -3 55 -2 57 23 57 14 0 25 5 25 10 0 6 -11 10 -25 10 -18 0 -25 5 -25 20 0
11 -4 20 -10 20 -5 0 -10 -9 -10 -20z"/>
<path d="M2040 1310 c0 -73 4 -120 10 -120 6 0 10 22 10 49 l0 49 30 -11 c25
-9 36 -9 58 3 81 46 29 176 -58 143 -16 -6 -30 -7 -30 -2 0 5 -4 9 -10 9 -6 0
-10 -47 -10 -120z m114 84 c9 -8 16 -28 16 -44 0 -50 -44 -75 -91 -50 -26 14
-27 84 -1 99 25 15 58 13 76 -5z"/>
<path d="M2469 1411 c-18 -14 -24 -29 -24 -61 0 -32 6 -47 24 -61 69 -56 158
20 117 99 -24 46 -76 57 -117 23z m93 -18 c38 -34 11 -103 -40 -103 -54 0 -81
62 -45 102 20 22 61 23 85 1z"/>
<path d="M2829 1411 c-18 -14 -24 -29 -24 -61 0 -32 6 -47 24 -61 69 -56 158
20 117 99 -24 46 -76 57 -117 23z m93 -18 c22 -20 23 -61 1 -85 -34 -38 -103
-11 -103 40 0 54 62 81 102 45z"/>
<path d="M3033 1415 c-70 -49 -12 -168 68 -138 26 10 29 9 29 -9 0 -37 -19
-58 -53 -58 -18 0 -38 5 -45 12 -6 6 -15 9 -19 5 -11 -12 12 -27 50 -34 29 -4
40 -1 61 20 24 24 26 32 26 122 0 57 -4 95 -10 95 -5 0 -10 -5 -10 -10 0 -7
-6 -7 -19 0 -27 14 -53 13 -78 -5z m85 -17 c16 -16 16 -80 0 -96 -33 -33 -98
2 -98 52 0 45 67 75 98 44z"/>
<path d="M3220 1350 c0 -47 4 -80 10 -80 6 0 10 26 10 58 0 60 11 82 42 82 10
0 18 5 18 10 0 14 -33 13 -48 -2 -9 -9 -12 -9 -12 0 0 7 -4 12 -10 12 -6 0
-10 -33 -10 -80z"/>
<path d="M3368 1423 c-35 -9 -17 -21 22 -16 42 6 70 -8 70 -33 0 -10 -7 -13
-25 -8 -62 16 -110 -27 -80 -72 17 -26 52 -32 86 -14 13 7 19 7 19 0 0 -5 5
-10 10 -10 6 0 10 27 10 60 0 86 -34 114 -112 93z m89 -89 c8 -22 -22 -44 -59
-44 -33 0 -46 23 -28 45 17 21 79 20 87 -1z"/>
<path d="M3540 1310 c0 -73 4 -120 10 -120 6 0 10 22 10 49 l0 49 30 -11 c25
-9 36 -9 58 3 81 46 29 176 -58 143 -16 -6 -30 -7 -30 -2 0 5 -4 9 -10 9 -6 0
-10 -47 -10 -120z m114 84 c9 -8 16 -28 16 -44 0 -50 -44 -75 -91 -50 -26 14
-27 84 -1 99 25 15 58 13 76 -5z"/>
<path d="M3940 1424 c0 -3 15 -39 34 -80 30 -63 33 -79 25 -104 -8 -20 -18
-30 -37 -33 -24 -3 -25 -4 -8 -12 38 -17 47 -2 116 183 11 28 16 52 11 52 -5
0 -20 -29 -33 -65 -12 -36 -26 -65 -29 -65 -4 0 -20 29 -35 65 -16 36 -32 65
-36 65 -5 0 -8 -3 -8 -6z"/>
</g>
</svg>
